<svg version="1.1" xmlns="http://www.w3.org/2000/svg" xmlns:xlink="http://www.w3.org/1999/xlink" width="143.80643" height="129.51722" viewBox="0,0,143.80643,129.51722"><g transform="translate(-171.80489,-114.94789)"><g data-paper-data="{&quot;isPaintingLayer&quot;:true}" fill="#9966ff" fill-rule="nonzero" stroke="none" stroke-width="0.5" stroke-linecap="butt" stroke-linejoin="miter" stroke-miterlimit="10" stroke-dasharray="" stroke-dashoffset="0" style="mix-blend-mode: normal"><path d="M313.22663,179.90233c2.49742,0.11352 2.3839,2.61094 2.3839,2.61094l-0.08249,1.8147c-0.48611,10.69417 0.13536,22.12844 -1.49784,32.71754c-0.17871,1.15866 -2.60014,9.6469 -2.85949,10.57085c-1.95535,1.89186 -4.23709,4.51544 -6.78692,5.89471c-5.2515,2.84067 -11.49938,4.39774 -17.13722,6.24768c-21.45022,7.03848 -46.49058,5.77892 -67.88443,-1.09971c-6.51134,-2.32319 -13.09591,-4.37298 -18.86495,-8.32315c-4.51575,-3.09202 -7.80439,-6.6337 -11.27646,-10.7604c-2.86428,-3.40432 -3.5298,-3.27433 -5.5072,-6.86543c-3.15741,-5.73409 -4.92928,-11.99687 -7.0198,-18.15268c-2.12067,-6.24458 -4.30309,-13.00936 -4.74198,-19.63155c-0.43403,-6.54877 0.19005,-13.19861 0.62833,-19.7282c0.62669,-4.08434 0.88806,-8.91955 2.77869,-12.67532c1.58882,-3.15622 4.33912,-5.61369 6.90401,-8.04422c4.7666,-4.51691 9.35961,-10.51497 15.0321,-13.95541c0.1873,-0.1136 9.65777,-3.91484 9.93422,-3.99069c2.10147,-0.5766 5.81829,-0.74458 8.11547,-0.99894c12.09032,-1.33872 24.14496,-0.34901 35.93634,2.6472c13.50137,3.44124 24.53047,9.32429 35.3122,18.03723c2.8495,2.30274 4.84237,3.26772 6.75572,6.37078c9.99071,16.2029 8.69798,34.82506 2.88345,52.22062c-4.221,8.40092 -10.58648,12.48654 -18.83427,16.4577c-10.14423,4.88426 -20.36486,8.58574 -31.76129,8.60947c-5.02978,0.01047 -10.88831,0.61977 -15.70647,-1.07725c-4.99372,-1.75886 -8.8411,-6.95033 -12.34023,-10.65038c-3.12609,-4.23473 -7.11343,-8.71775 -9.21797,-13.59911c-4.91678,-11.40423 -6.85761,-27.82745 1.60943,-37.89714c2.75093,-3.27163 5.37856,-6.22276 9.67974,-7.32365c4.94504,-1.26569 10.77135,0.34907 15.65786,1.17491c6.10288,-0.0121 12.65249,0.17676 17.70822,3.9035c9.43414,6.9542 15.02713,22.50989 5.88527,32.17932c-4.73634,5.00968 -11.95947,5.73359 -18.43445,5.73359c-4.31075,-0.71467 -9.88003,-1.57876 -13.59013,-4.145c-6.33931,-4.38484 -10.1694,-17.23021 -3.26253,-22.87707c4.32252,-3.53396 12.32286,-0.91343 16.30153,1.72755c1.19949,0.7962 2.42605,1.79033 2.9934,3.11352c2.04794,4.77629 1.06315,5.39018 -0.61905,9.04561c0,0 -1.11803,2.23607 -3.3541,1.11803c-2.23607,-1.11803 -1.11803,-3.3541 -1.11803,-3.3541c2.597,-4.53788 -0.73467,-6.01453 -4.72639,-7.50551c-1.46257,-0.5463 -4.90189,-1.57307 -6.31211,-0.27454c-1.54898,1.4263 -1.74899,4.34905 -1.56892,6.19737c0.84672,8.69091 8.21419,10.72078 15.66874,11.97117c3.7713,0 8.49036,-0.11813 11.86821,-2.15828c3.64959,-2.20428 4.81597,-5.26469 5.25047,-9.2454c0.8037,-7.3633 -2.09342,-13.00819 -8.00112,-17.54075c-4.08836,-3.13671 -10.13939,-2.89679 -15.1014,-2.90605c-4.30538,-0.70835 -9.68277,-2.35493 -14.05652,-1.30129c-6.75596,1.62752 -10.77941,10.09636 -11.09761,16.26772c-0.39558,7.67207 0.13004,14.87713 3.19625,22.08316c1.88659,4.43377 5.65153,8.56309 8.47596,12.40388c2.74301,2.8893 6.22788,7.81701 10.20406,9.15629c4.26478,1.43648 9.57966,0.76995 14.0079,0.7799c10.63293,0.02389 20.1448,-3.56573 29.59221,-8.11448c7.02479,-3.3823 12.79383,-6.64032 16.38395,-13.86611c5.32854,-16.03504 6.42374,-32.63166 -2.47901,-47.61757c-1.97033,-3.31663 -6.48257,-6.05013 -9.46667,-8.33865c-8.9098,-6.83295 -18.76488,-11.16189 -29.61813,-13.91312c-11.21082,-2.85101 -22.67273,-3.80378 -34.16799,-2.52195c-1.69414,0.18891 -5.83394,0.43443 -7.36077,0.85821c-9.87331,2.74041 -15.65596,9.98632 -22.82669,16.75293c-2.1176,1.99826 -4.51324,3.91695 -5.80597,6.5258c-1.62136,3.27208 -1.78996,7.55419 -2.33757,11.10346c-0.41301,6.23964 -1.00557,12.58533 -0.60976,18.84328c0.39062,6.17597 2.50889,12.54307 4.4875,18.36063c1.99969,5.87956 3.68298,11.83501 6.65555,17.33161c1.56496,2.89378 2.60945,3.27503 4.96434,6.07756c3.19066,3.79717 6.1252,7.00261 10.27726,9.85467c5.36874,3.6878 11.58054,5.54771 17.64372,7.71184c20.35408,6.56077 44.30922,7.78436 64.71867,1.08393c7.76083,-2.54788 15.06293,-4.45926 21.18729,-9.94979c0.69884,-2.93458 1.75417,-5.79355 2.214,-8.77494c1.60512,-10.40705 0.96678,-21.67098 1.44457,-32.18242l0.08249,-1.8147c0,0 0.11352,-2.49742 2.61094,-2.3839z"/></g></g></svg>